<?xml version="1.0" encoding="utf-8"?>
<!-- Generator: Adobe Illustrator 21.1.0, SVG Export Plug-In . SVG Version: 6.00 Build 0)  -->
<svg version="1.1" id="圖層_1" xmlns="http://www.w3.org/2000/svg" xmlns:xlink="http://www.w3.org/1999/xlink" x="0px" y="0px"
	 viewBox="0 0 1024 1024" style="enable-background:new 0 0 1024 1024;" xml:space="preserve">
<style type="text/css">
	.st0{fill:#C8C8C8;}
</style>
<circle class="st0" cx="512" cy="512" r="426.7"/>
<circle class="st0" cx="512" cy="512" r="451"/>
<g>
	<path class="st0" d="M512,85.3C750.9,85.3,938.7,273,938.7,512S750.9,938.7,512,938.7S85.3,750.9,85.3,512S273.1,85.3,512,85.3
		 M512,0C230.4,0,0,230.4,0,512s230.4,512,512,512s512-230.4,512-512S793.6,0,512,0L512,0z"/>
</g>
<g>
	<path class="st0" d="M512,85.3C750.9,85.3,938.7,273,938.7,512S750.9,938.7,512,938.7S85.3,750.9,85.3,512S273.1,85.3,512,85.3
		 M512,0C230.4,0,0,230.4,0,512s230.4,512,512,512s512-230.4,512-512S793.6,0,512,0L512,0z"/>
</g>
</svg>
